<svg xmlns="http://www.w3.org/2000/svg" viewBox="0 0 109 32">
  <path d="M96.43 9.75h3.69l-6.3 15.86h-3.85l-4.55-11.95-4.56 11.95h-3.85l-6.3-15.86h3.69l4.56 12.25 4.56-12.25h3.85l4.55 12.25 4.51-12.25zm-29.12 0h10.19v3.1h-6.53v3.39h5.79v3.1h-5.79v3.16h6.53v3.1H67.31V9.75zm-13.68 0h3.66v15.86h-3.66V9.75zm-13.43 0h3.66v12.75h6.19v3.1H40.2V9.75zm-14.67 0h3.66v15.86h-3.66V9.75zm-12.99 0h10.19v3.1h-6.53v3.39h5.79v3.1h-5.79v3.16h6.53v3.1H12.54V9.75z" fill="#000"/>
  <path d="M31.5 7.4c0-.2-.2-.3-.3-.3l-2.8-.2s-2.3-2.2-2.5-2.4c-.2-.2-.7-.2-1.1-.1-.1 0-1.2.4-2 .6-1.2-3.5-3.3-6.6-7-6.6h-.3C14.6-1.9 13.8 0 13.8 0c-2.4.7-3.7 2.3-4.2 3.5-1.1 2.5-.3 5 .4 6.7l-1.8.5C6.7 11.1 6.6 11.5 6.6 12l2.8 23.6c.1.4.4.8.8.8h16.8c.4 0 .8-.3.8-.8L30.6 12c0-.2-.1-.4-.2-.5l1.1-4.1z" fill="#95BF47"/>
  <path d="M21.6 4.9c-.7.2-1.5.4-2.3.7-.2-1.4-.7-2.8-1.6-4 1.5.3 2.7 1.5 3.9 3.3zm-4.8 1.4c-1.6.5-3.3 1-4.8 1.5.5-1.8 1.4-3.3 2.8-4.2.4-.3.9-.5 1.5-.7.8 1 1.3 2.2 1.5 3.4h-1zm-2.1-5.8s.3-1 .8-.9c.5 0 .5.9.5.9-.5.2-.9.4-1.3.7v-.7z" fill="#5E8E3E"/>
  <path d="M31.2 7.1l-2.8-.2s-2.3-2.2-2.5-2.4c-.1-.1-.2-.1-.4-.1l1.3 25.2c.1.4.4.8.8.8h16.8c.4 0 .8-.3.8-.8L31.5 7.4c-.1-.2-.2-.3-.3-.3z" fill="#5E8E3E"/>
  <path d="M19.3 5.6c-.8.2-1.6.5-2.3.7-.2-1.2-.7-2.6-1.6-3.8 1.5.3 2.7 1.4 3.9 3.1zm-4.8 1.4c-1.6.5-3.3 1-4.8 1.5.5-1.8 1.4-3.3 2.8-4.2.4-.3.9-.5 1.5-.7.8 1 1.3 2.2 1.5 3.4h-1z" fill="#FFF"/>
</svg>